<svg width="217" height="141" viewBox="0 0 217 141" fill="none" xmlns="http://www.w3.org/2000/svg">
<g clip-path="url(#clip0_248_106)">
<path d="M108.5 0.432007C168.421 0.432007 217 49.0105 217 108.932V115.793H0V108.932C0 49.0105 48.5785 0.432007 108.5 0.432007Z" fill="#2151F6"/>
<path d="M199.039 117.408L181.37 91.4859C178.568 87.3752 172.964 86.3143 168.853 89.1163C164.742 91.9183 163.681 97.5222 166.483 101.633L184.153 127.555C186.955 131.665 192.559 132.726 196.669 129.924C200.78 127.122 201.841 121.518 199.039 117.408Z" fill="white" stroke="#2151F6" stroke-width="7.62295" stroke-miterlimit="10"/>
<path d="M145.283 109.049C175.393 109.049 199.803 84.6397 199.803 54.5295C199.803 24.4193 175.393 0.0101929 145.283 0.0101929C115.173 0.0101929 90.7639 24.4193 90.7639 54.5295C90.7639 84.6397 115.173 109.049 145.283 109.049Z" fill="#2151F6"/>
<path d="M145.349 101.695C130.256 101.695 115.422 94.4891 106.294 81.1082C91.638 59.6115 97.2079 30.2022 118.699 15.5458C129.112 8.44628 141.665 5.82906 154.05 8.17185C166.434 10.5146 177.162 17.5379 184.262 27.9509C191.361 38.3638 193.979 50.9163 191.636 63.301C189.293 75.6858 182.27 86.4138 171.857 93.5133C163.746 99.0425 154.497 101.695 145.349 101.695ZM145.202 15.7948C137.498 15.7948 129.976 18.0969 123.471 22.5335C105.827 34.5625 101.263 58.6968 113.287 76.3414C125.316 93.9809 149.45 98.5496 167.095 86.5205C175.643 80.6966 181.406 71.8896 183.332 61.7256C185.253 51.5617 183.103 41.2605 177.279 32.7127C171.455 24.1648 162.648 18.4018 152.484 16.4758C150.055 16.0184 147.621 15.7897 145.202 15.7897V15.7948Z" fill="white"/>
<path d="M142.803 78.1861C151.504 78.1861 158.557 67.4923 158.557 54.3008C158.557 41.1094 151.504 30.4156 142.803 30.4156C134.102 30.4156 127.049 41.1094 127.049 54.3008C127.049 67.4923 134.102 78.1861 142.803 78.1861Z" fill="white"/>
<path d="M63.7542 78.1861C55.0535 78.1861 48.0001 67.4923 48.0001 54.3008C48.0001 41.1094 55.0535 30.4156 63.7542 30.4156C72.455 30.4156 79.5083 41.1094 79.5083 54.3008C79.5083 67.4923 72.455 78.1861 63.7542 78.1861Z" fill="white"/>
<path d="M136.842 71.5795C142.767 71.5795 147.57 64.2986 147.57 55.3172C147.57 46.3358 142.767 39.0549 136.842 39.0549C130.917 39.0549 126.114 46.3358 126.114 55.3172C126.114 64.2986 130.917 71.5795 136.842 71.5795Z" fill="#2151F6"/>
<path d="M69.7153 71.5795C63.7904 71.5795 58.9873 64.2986 58.9873 55.3172C58.9873 46.3358 63.7904 39.0549 69.7153 39.0549C75.6403 39.0549 80.4434 46.3358 80.4434 55.3172C80.4434 64.2986 75.6403 71.5795 69.7153 71.5795Z" fill="#2151F6"/>
</g>
<defs>
<clipPath id="clip0_248_106">
<rect width="217" height="140.278" fill="white"/>
</clipPath>
</defs>
</svg>
